<?xml version="1.0" encoding="UTF-8" standalone="no"?>
<svg
   width="128"
   height="128"
   viewBox="0 0 33.867 33.867"
   id="flag"
   version="1.1"
   sodipodi:docname="flag.svg"
   inkscape:version="1.4.3 (0d15f75, 2025-12-25)"
   xmlns:inkscape="http://www.inkscape.org/namespaces/inkscape"
   xmlns:sodipodi="http://sodipodi.sourceforge.net/DTD/sodipodi-0.dtd"
   xmlns="http://www.w3.org/2000/svg"
   xmlns:svg="http://www.w3.org/2000/svg">
  <defs
     id="defs5" />
  <sodipodi:namedview
     id="namedview5"
     pagecolor="#ffffff"
     bordercolor="#000000"
     borderopacity="0.25"
     inkscape:showpageshadow="2"
     inkscape:pageopacity="0.0"
     inkscape:pagecheckerboard="0"
     inkscape:deskcolor="#d1d1d1"
     inkscape:zoom="6.3671875"
     inkscape:cx="64"
     inkscape:cy="64"
     inkscape:window-width="1920"
     inkscape:window-height="1017"
     inkscape:window-x="1912"
     inkscape:window-y="-8"
     inkscape:window-maximized="1"
     inkscape:current-layer="flag" />
  <path
     fill="#06f"
     d="m17.484 10.096 12.14-.37c.732-.022 1.141.2 1.334.906l.445 1.638c.193.707-.01 1.29-.649 1.649l-10.643 5.982c-.639.36-1.43-.227-1.62-.935l-1.943-7.25c-.19-.708.203-1.598.936-1.62z"
     paint-order="fill markers stroke"
     id="path1"
     style="fill:#0049b6;fill-opacity:0.94818652" />
  <path
     fill="#00a1ff"
     d="m6.08 6.459 12.825-2.095c.723-.118 1.4.236 1.62.936l1.943 6.191c.22.7-.267 1.32-.936 1.62l-11.766 5.27c-.668.3-4.409-11.804-3.685-11.922Z"
     paint-order="fill markers stroke"
     id="path2"
     style="fill:#51bfff;fill-opacity:1" />
  <path
     fill="#a8d0ff"
     d="m3.564 4.072 6.086 26.46c.203.7 4.332-.035 4.128-.737L6.105 3.335c-.168-.578-2.745.036-2.541.737Z"
     color="#000"
     font-family="sans-serif"
     font-weight="400"
     overflow="visible"
     paint-order="fill markers stroke"
     style="line-height:normal;font-variant-ligatures:normal;font-variant-position:normal;font-variant-caps:normal;font-variant-numeric:normal;font-variant-alternates:normal;font-variant-east-asian:normal;font-feature-settings:normal;font-variation-settings:normal;text-indent:0;text-align:start;text-decoration-line:none;text-decoration-style:solid;text-decoration-color:#000;text-transform:none;text-orientation:mixed;shape-padding:0;shape-margin:0;inline-size:0;isolation:auto;mix-blend-mode:normal;fill:#002c62;fill-opacity:1"
     id="path3" />
  <path
     fill="#00a1ff"
     d="M4.815 1.058A2.431 2.431 0 0 1 7.246 3.49 2.431 2.431 0 0 1 4.815 5.92 2.431 2.431 0 0 1 2.384 3.49a2.431 2.431 0 0 1 2.43-2.432zm2.632 26.457h8.095c1.066 0 1.423.984 1.925 1.925l.77 1.443c.502.941-.178 1.925-1.245 1.925H5.928c-1.066 0-1.678-.984-1.176-1.925l.77-1.443c.502-.941.859-1.925 1.925-1.925z"
     paint-order="fill markers stroke"
     id="path4"
     style="fill:#0084d1;fill-opacity:1" />
  <path
     fill="#fff"
     d="M13.424 13.31c.66.257 1.174-.897 1.86-1.077.685-.18 1.7.572 2.148.023.45-.549-.49-1.393-.449-2.101.04-.708 1.07-1.44.686-2.036-.383-.597-1.476.034-2.137-.223-.66-.257-1.039-1.462-1.724-1.282-.686.18-.424 1.415-.873 1.964-.448.55-1.71.536-1.751 1.244-.041.708 1.215.84 1.598 1.437.383.596-.02 1.793.642 2.05z"
     paint-order="fill markers stroke"
     id="path5"
     style="fill:#ffffff;fill-opacity:1" />
</svg>
